<?xml version="1.0" encoding="UTF-8" standalone="no"?>
<svg width="730px" height="184px" viewBox="0 0 730 184" version="1.1" xmlns="http://www.w3.org/2000/svg" xmlns:xlink="http://www.w3.org/1999/xlink">
    <!-- Generator: Sketch 42 (36781) - http://www.bohemiancoding.com/sketch -->
    <title>VOLARE_2016_RGB</title>
    <desc>Created with Sketch.</desc>
    <defs></defs>
    <g id="Page-1" stroke="none" stroke-width="1" fill="none" fill-rule="evenodd">
        <g id="VOLARE_2016_RGB">
            <path d="M1.12,35.3954 C-2.088,26.0904 1.762,19.9954 11.707,19.9954 L26.786,19.9954 C34.485,19.9954 39.619,23.5244 41.865,31.2254 L72.343,121.3764 C75.55,131.0004 78.438,146.0784 78.438,146.0784 L79.079,146.0784 C79.079,146.0784 81.647,131.0004 84.854,121.3764 L115.332,31.2254 C117.578,23.5244 122.712,19.9954 130.411,19.9954 L145.49,19.9954 C155.435,19.9954 159.606,26.0904 156.398,35.3954 L106.991,172.7064 C104.425,180.4084 99.612,183.6154 91.913,183.6154 L66.247,183.6154 C58.547,183.6154 53.414,180.4084 51.168,172.7064 L1.12,35.3954 Z" id="Fill-1" fill="#3AACDB"></path>
            <path d="M225.9232,156.338 C246.9852,156.338 264.4952,140.098 264.4952,115.991 C264.4952,92.137 246.9852,75.643 225.9232,75.643 C204.8622,75.643 187.6062,92.137 187.6062,115.991 C187.6062,140.098 204.8622,156.338 225.9232,156.338 M225.9232,48.238 C265.2552,48.238 297.2292,76.404 297.2292,115.991 C297.2292,155.831 265.2552,183.743 225.9232,183.743 C186.5912,183.743 154.8722,155.831 154.8722,115.991 C154.8722,76.404 186.5912,48.238 225.9232,48.238" id="Fill-3" fill="#3AACDB"></path>
            <path d="M307.4398,11.1886 C307.4398,4.3386 310.9918,0.5306 317.8428,0.5306 L329.0088,0.5306 C335.8608,0.5306 339.4118,4.3386 339.4118,11.1886 L339.4118,137.8136 C339.4118,150.5016 344.7408,152.7866 349.5628,153.2936 C354.1298,153.8006 357.4298,156.5916 357.4298,162.4276 L357.4298,171.0546 C357.4298,177.6536 354.3838,181.9656 346.7718,181.9656 C329.5158,181.9656 307.4398,177.4006 307.4398,140.3516 L307.4398,11.1886 Z" id="Fill-5" fill="#3AACDB"></path>
            <path d="M413.2487,159.1292 C431.2667,159.1292 442.9387,140.8582 442.9387,125.1242 L442.9387,120.3052 L437.6117,120.3052 C421.3717,120.3052 393.7097,122.8432 393.7097,142.1282 C393.7097,150.7552 400.3067,159.1292 413.2487,159.1292 M437.3557,100.7642 L442.6847,100.7642 L442.6847,97.7192 C442.6847,80.7182 431.7737,74.8822 418.5777,74.8822 C407.6667,74.8822 397.7717,78.9412 391.6817,82.2422 C385.3367,85.0332 380.5147,84.0172 377.4697,77.9272 L374.9317,73.1052 C371.8877,67.2692 372.9017,62.1942 378.9907,58.8962 C387.3647,54.5812 402.0837,48.2382 421.3717,48.2382 C454.8667,48.2382 474.9117,67.0162 474.9117,99.7502 L474.9117,170.0402 C474.9117,177.1472 471.3607,180.6982 464.2537,180.6982 L455.6267,180.6982 C448.7767,180.6982 445.2227,177.1472 445.2227,170.0402 L445.2227,164.9652 C445.2227,161.4132 445.7297,159.3822 445.7297,159.3822 L445.2227,159.3822 C445.2227,159.3822 433.0437,183.7432 404.6217,183.7432 C381.0247,183.7432 361.7367,168.5192 361.7367,144.9192 C361.7367,107.1102 408.4297,100.7642 437.3557,100.7642" id="Fill-7" fill="#3AACDB"></path>
            <path d="M497.9937,61.9405 C497.9937,55.0905 501.5457,51.2825 508.3977,51.2825 L518.2957,51.2825 C525.1457,51.2825 528.9537,55.0905 528.9537,61.9405 L528.9537,74.1225 C528.9537,78.9415 528.1897,83.0025 528.1897,83.0025 L528.6967,83.0025 C533.7727,67.5225 547.9847,50.2685 566.2537,50.2685 C573.3597,50.2685 575.8977,53.8205 575.8977,60.9265 L575.8977,70.8215 C575.8977,77.6735 571.8357,81.4795 564.9827,81.4795 C541.3857,81.4795 529.9677,104.8255 529.9677,128.4255 L529.9677,170.0405 C529.9677,177.1465 526.4127,180.6985 519.5627,180.6985 L508.3977,180.6985 C501.5457,180.6985 497.9937,177.1465 497.9937,170.0405 L497.9937,61.9405 Z" id="Fill-9" fill="#3AACDB"></path>
            <path d="M669.0844,101.274 C668.5774,83.256 657.6664,72.598 642.9494,72.598 C626.4524,72.598 614.7804,84.017 611.7364,101.274 L669.0844,101.274 Z M643.7094,48.238 C680.5054,48.238 701.0584,74.376 701.0584,109.901 C701.0584,115.484 696.2364,120.813 689.8934,120.813 L610.9754,120.813 C613.0034,144.156 630.2604,156.338 649.7994,156.338 C661.7244,156.338 671.6224,151.77 677.7144,147.964 C684.0544,144.92 688.6234,145.68 691.9214,151.516 L694.9684,156.592 C698.0134,162.427 696.9964,167.503 691.4144,170.801 C683.0404,176.13 667.8144,183.743 647.5154,183.743 C604.6294,183.743 577.9884,152.786 577.9884,115.991 C577.9884,76.15 604.8864,48.238 643.7094,48.238 L643.7094,48.238 Z" id="Fill-11" fill="#3AACDB"></path>
            <path d="M1.12,35.3954 C-2.088,26.0904 1.762,19.9954 11.707,19.9954 L26.786,19.9954 C34.485,19.9954 39.619,23.5244 41.865,31.2254 L72.343,121.3764 C75.55,131.0004 78.438,146.0784 78.438,146.0784 L79.079,146.0784 C79.079,146.0784 81.647,131.0004 84.854,121.3764 L115.332,31.2254 C117.578,23.5244 122.712,19.9954 130.411,19.9954 L145.49,19.9954 C155.435,19.9954 159.606,26.0904 156.398,35.3954 L106.991,172.7064 C104.425,180.4084 99.612,183.6154 91.913,183.6154 L66.247,183.6154 C58.547,183.6154 53.414,180.4084 51.168,172.7064 L1.12,35.3954 Z" id="Fill-13" fill="#0076AA"></path>
            <path d="M225.9232,156.338 C246.9852,156.338 264.4952,140.098 264.4952,115.991 C264.4952,92.137 246.9852,75.643 225.9232,75.643 C204.8622,75.643 187.6062,92.137 187.6062,115.991 C187.6062,140.098 204.8622,156.338 225.9232,156.338 M225.9232,48.238 C265.2552,48.238 297.2292,76.404 297.2292,115.991 C297.2292,155.831 265.2552,183.743 225.9232,183.743 C186.5912,183.743 154.8722,155.831 154.8722,115.991 C154.8722,76.404 186.5912,48.238 225.9232,48.238" id="Fill-15" fill="#0076AA"></path>
            <path d="M307.4398,11.1886 C307.4398,4.3386 310.9918,0.5306 317.8428,0.5306 L329.0088,0.5306 C335.8608,0.5306 339.4118,4.3386 339.4118,11.1886 L339.4118,137.8136 C339.4118,150.5016 344.7408,152.7866 349.5628,153.2936 C354.1298,153.8006 357.4298,156.5916 357.4298,162.4276 L357.4298,171.0546 C357.4298,177.6536 354.3838,181.9656 346.7718,181.9656 C329.5158,181.9656 307.4398,177.4006 307.4398,140.3516 L307.4398,11.1886 Z" id="Fill-17" fill="#0076AA"></path>
            <path d="M413.2487,159.1292 C431.2667,159.1292 442.9387,140.8582 442.9387,125.1242 L442.9387,120.3052 L437.6117,120.3052 C421.3717,120.3052 393.7097,122.8432 393.7097,142.1282 C393.7097,150.7552 400.3067,159.1292 413.2487,159.1292 M437.3557,100.7642 L442.6847,100.7642 L442.6847,97.7192 C442.6847,80.7182 431.7737,74.8822 418.5777,74.8822 C407.6667,74.8822 397.7717,78.9412 391.6817,82.2422 C385.3367,85.0332 380.5147,84.0172 377.4697,77.9272 L374.9317,73.1052 C371.8877,67.2692 372.9017,62.1942 378.9907,58.8962 C387.3647,54.5812 402.0837,48.2382 421.3717,48.2382 C454.8667,48.2382 474.9117,67.0162 474.9117,99.7502 L474.9117,170.0402 C474.9117,177.1472 471.3607,180.6982 464.2537,180.6982 L455.6267,180.6982 C448.7767,180.6982 445.2227,177.1472 445.2227,170.0402 L445.2227,164.9652 C445.2227,161.4132 445.7297,159.3822 445.7297,159.3822 L445.2227,159.3822 C445.2227,159.3822 433.0437,183.7432 404.6217,183.7432 C381.0247,183.7432 361.7367,168.5192 361.7367,144.9192 C361.7367,107.1102 408.4297,100.7642 437.3557,100.7642" id="Fill-19" fill="#0076AA"></path>
            <path d="M497.9937,61.9405 C497.9937,55.0905 501.5457,51.2825 508.3977,51.2825 L518.2957,51.2825 C525.1457,51.2825 528.9537,55.0905 528.9537,61.9405 L528.9537,74.1225 C528.9537,78.9415 528.1897,83.0025 528.1897,83.0025 L528.6967,83.0025 C533.7727,67.5225 547.9847,50.2685 566.2537,50.2685 C573.3597,50.2685 575.8977,53.8205 575.8977,60.9265 L575.8977,70.8215 C575.8977,77.6735 571.8357,81.4795 564.9827,81.4795 C541.3857,81.4795 529.9677,104.8255 529.9677,128.4255 L529.9677,170.0405 C529.9677,177.1465 526.4127,180.6985 519.5627,180.6985 L508.3977,180.6985 C501.5457,180.6985 497.9937,177.1465 497.9937,170.0405 L497.9937,61.9405 Z" id="Fill-21" fill="#0076AA"></path>
            <path d="M669.0844,101.274 C668.5774,83.256 657.6664,72.598 642.9494,72.598 C626.4524,72.598 614.7804,84.017 611.7364,101.274 L669.0844,101.274 Z M643.7094,48.238 C680.5054,48.238 701.0584,74.376 701.0584,109.901 C701.0584,115.484 696.2364,120.813 689.8934,120.813 L610.9754,120.813 C613.0034,144.156 630.2604,156.338 649.7994,156.338 C661.7244,156.338 671.6224,151.77 677.7144,147.964 C684.0544,144.92 688.6234,145.68 691.9214,151.516 L694.9684,156.592 C698.0134,162.427 696.9964,167.503 691.4144,170.801 C683.0404,176.13 667.8144,183.743 647.5154,183.743 C604.6294,183.743 577.9884,152.786 577.9884,115.991 C577.9884,76.15 604.8864,48.238 643.7094,48.238 L643.7094,48.238 Z" id="Fill-23" fill="#0076AA"></path>
            <path d="M713.8578,50.2999 C713.9318,49.3119 714.4648,48.7819 715.4868,48.7819 L716.0168,48.7819 C716.9278,48.7819 717.4978,49.1609 717.8398,49.9949 L720.7958,56.7059 C721.0608,57.3519 721.2888,58.3009 721.2888,58.3009 L721.3658,58.3009 C721.3658,58.3009 721.6308,57.3519 721.8958,56.7059 L724.8518,49.9949 C725.1938,49.1609 725.7628,48.7819 726.6748,48.7819 L727.2048,48.7819 C728.1898,48.7819 728.7598,49.3119 728.8338,50.2999 L729.8958,63.9489 C729.9328,65.0109 729.4398,65.5809 728.3778,65.5809 L727.8878,65.5809 C726.9028,65.5809 726.3698,65.0849 726.2928,64.0619 L725.7628,56.9329 C725.7238,56.3669 725.8008,55.7599 725.8008,55.7599 L725.7238,55.7599 L723.2628,61.2939 C722.9208,62.1289 722.3508,62.5069 721.4398,62.5069 L721.2118,62.5069 C720.3398,62.5069 719.7708,62.1289 719.4318,61.2939 L716.9678,55.7599 L716.8908,55.7599 C716.8908,55.7599 716.9678,56.3669 716.9278,56.9329 L716.3588,64.0619 C716.2848,65.0849 715.7148,65.5809 714.7298,65.5809 L714.2738,65.5809 C713.2138,65.5809 712.6818,65.0109 712.7588,63.9489 L713.8578,50.2999 Z M702.4078,64.0249 L702.4078,51.9659 L698.3498,51.9659 C697.3268,51.9659 696.7948,51.5129 696.7948,50.4879 L696.7948,50.2599 C696.7948,49.2749 697.3268,48.7819 698.3498,48.7819 L710.0268,48.7819 C711.0498,48.7819 711.6188,49.2749 711.6188,50.2599 L711.6188,50.4879 C711.6188,51.5129 711.0498,51.9659 710.0268,51.9659 L706.0078,51.9659 L706.0078,64.0249 C706.0078,65.0479 705.4788,65.5809 704.4528,65.5809 L703.9978,65.5809 C702.9748,65.5809 702.4078,65.0479 702.4078,64.0249 L702.4078,64.0249 Z" id="Fill-25" fill="#0076AA"></path>
        </g>
    </g>
</svg>